<?xml version="1.0" encoding="UTF-8" standalone="no"?>
<svg
   width="3.26667in"
   height="3.22667in"
   viewBox="0 0 980 968"
   version="1.1"
   id="svg1"
   sodipodi:docname="antenna.svg"
   inkscape:version="1.3.2 (091e20ef0f, 2023-11-25)"
   xmlns:inkscape="http://www.inkscape.org/namespaces/inkscape"
   xmlns:sodipodi="http://sodipodi.sourceforge.net/DTD/sodipodi-0.dtd"
   xmlns="http://www.w3.org/2000/svg"
   xmlns:svg="http://www.w3.org/2000/svg">
  <defs
     id="defs1" />
  <sodipodi:namedview
     id="namedview1"
     pagecolor="#ffffff"
     bordercolor="#000000"
     borderopacity="0.25"
     inkscape:showpageshadow="2"
     inkscape:pageopacity="0.0"
     inkscape:pagecheckerboard="0"
     inkscape:deskcolor="#d1d1d1"
     inkscape:document-units="in"
     inkscape:zoom="2.3405588"
     inkscape:cx="156.80016"
     inkscape:cy="155.09117"
     inkscape:window-width="1854"
     inkscape:window-height="1011"
     inkscape:window-x="66"
     inkscape:window-y="32"
     inkscape:window-maximized="1"
     inkscape:current-layer="svg1" />
  <path
     id="Selection"
     fill="none"
     stroke="black"
     stroke-width="1"
     d="M 283.00,1.42            C 287.75,0.85 302.06,0.06 305.70,2.85              308.66,5.13 309.30,11.43 310.00,15.00              311.96,25.01 314.02,39.91 314.00,50.00              313.99,52.77 314.29,56.44 312.40,58.69              309.69,61.91 294.53,61.95 290.00,62.00              276.04,62.17 252.69,67.67 239.00,71.58              179.37,88.59 129.13,125.51 97.20,179.00              80.95,206.23 70.08,236.61 65.43,268.00              65.43,268.00 63.58,285.00 63.58,285.00              63.58,285.00 61.83,306.00 61.83,306.00              61.51,308.89 60.87,313.42 58.57,315.40              56.27,317.39 51.90,317.03 49.00,317.00              49.00,317.00 15.00,312.75 15.00,312.75              11.54,312.15 4.91,311.27 2.60,308.57              0.72,306.38 0.33,299.86 0.51,297.00              2.69,262.71 8.17,229.41 20.05,197.00              46.66,124.44 102.14,63.79 172.00,30.78              199.80,17.65 229.63,8.96 260.00,4.27              260.00,4.27 283.00,1.42 283.00,1.42 Z            M 792.00,68.00            C 792.00,68.00 807.42,89.00 807.42,89.00              822.25,109.95 834.78,132.07 846.25,155.00              880.69,223.89 895.89,301.34 895.00,378.00              895.00,378.00 894.04,388.00 894.04,388.00              894.04,388.00 894.04,398.00 894.04,398.00              894.04,398.00 890.28,435.00 890.28,435.00              883.92,483.77 870.20,529.34 849.69,574.00              830.99,614.74 803.18,655.34 773.72,689.00              773.72,689.00 746.83,718.00 746.83,718.00              744.63,720.44 738.38,725.64 738.76,729.00              739.07,731.70 746.80,739.65 748.93,742.00              755.41,749.16 763.85,760.86 769.33,769.00              778.24,782.23 785.42,796.36 791.72,811.00              793.61,815.39 797.94,828.72 801.27,831.07              803.83,832.87 816.11,834.43 820.00,835.20              832.47,837.68 843.05,840.67 855.00,845.05              897.00,860.45 938.43,890.52 961.80,929.00              967.42,938.25 977.91,954.49 979.00,965.00              979.00,965.00 952.00,966.00 952.00,966.00              952.00,966.00 935.00,967.00 935.00,967.00              935.00,967.00 837.00,967.00 837.00,967.00              837.00,967.00 609.00,967.00 609.00,967.00              609.00,967.00 594.00,966.00 594.00,966.00              594.00,966.00 561.00,966.00 561.00,966.00              562.66,956.84 570.81,943.34 575.58,935.00              593.37,903.93 624.66,875.51 656.00,858.30              670.84,850.16 686.02,845.28 702.00,840.00              705.99,838.68 716.87,837.47 717.50,832.94              717.93,829.88 714.69,822.97 713.42,820.00              709.35,810.49 699.21,793.86 693.33,785.00              690.91,781.35 685.94,772.11 680.96,772.78              678.46,773.12 666.79,779.41 664.00,781.00              664.00,781.00 634.00,797.74 634.00,797.74              606.73,811.81 575.52,824.16 546.00,832.57              436.03,863.92 315.17,856.01 211.00,808.31              191.26,799.27 171.20,788.89 153.00,777.00              153.00,777.00 180.84,745.00 180.84,745.00              180.84,745.00 225.83,695.00 225.83,695.00              225.83,695.00 358.17,548.00 358.17,548.00              358.17,548.00 416.05,483.00 416.05,483.00              416.05,483.00 432.20,464.00 432.20,464.00              433.47,462.43 438.09,457.04 438.47,455.43              439.22,452.23 433.13,448.00 431.00,445.96              431.00,445.96 407.00,423.98 407.00,423.98              407.00,423.98 391.00,409.72 391.00,409.72              388.39,407.43 385.20,403.96 382.00,402.74              379.89,401.93 377.24,402.01 375.00,402.00              359.67,401.92 348.97,404.22 335.00,396.69              324.49,391.03 315.75,382.76 310.37,372.00              300.25,351.74 304.56,324.35 320.17,308.06              341.40,285.97 380.70,284.93 401.71,308.06              409.45,316.55 414.16,326.66 415.87,338.00              415.87,338.00 417.60,356.00 417.60,356.00              419.28,360.57 427.24,366.52 431.00,370.02              431.00,370.02 463.00,398.58 463.00,398.58              465.35,400.60 474.95,409.37 477.00,410.10              480.00,411.18 482.00,408.86 484.00,406.98              484.00,406.98 497.09,393.00 497.09,393.00              497.09,393.00 553.97,331.00 553.97,331.00              553.97,331.00 612.17,267.00 612.17,267.00              612.17,267.00 724.83,143.00 724.83,143.00              724.83,143.00 792.00,68.00 792.00,68.00 Z            M 326.00,148.42            C 330.01,147.94 340.43,147.06 343.49,149.74              346.09,152.02 347.15,159.56 347.75,163.00              347.75,163.00 352.00,198.00 352.00,198.00              352.03,200.48 352.38,206.54 350.98,208.44              349.28,210.74 342.77,211.61 340.00,212.00              340.00,212.00 312.00,216.73 312.00,216.73              279.74,225.24 249.91,245.11 232.45,274.00              223.36,289.05 217.68,304.71 214.61,322.00              214.61,322.00 211.43,348.00 211.43,348.00              209.57,354.12 205.48,354.11 200.00,353.99              200.00,353.99 163.00,349.87 163.00,349.87              159.90,349.43 151.87,348.63 149.85,346.42              147.55,343.88 147.96,337.33 148.00,334.00              148.00,334.00 148.92,324.00 148.92,324.00              151.18,295.69 159.74,269.59 173.85,245.00              195.44,207.38 230.30,176.79 271.00,161.42              291.33,153.75 304.88,151.61 326.00,148.42 Z"
     inkscape:label="antenna"
     style="fill:#edb63b;fill-opacity:1" />
</svg>
