<?xml version="1.0" encoding="UTF-8" standalone="no"?>
<!-- Created with Inkscape (http://www.inkscape.org/) -->

<svg
   version="1.1"
   id="svg1"
   width="980"
   height="981.33331"
   viewBox="0 0 980 981.33331"
   sodipodi:docname="mail.svg"
   inkscape:version="1.3.2 (091e20ef0f, 2023-11-25)"
   xmlns:inkscape="http://www.inkscape.org/namespaces/inkscape"
   xmlns:sodipodi="http://sodipodi.sourceforge.net/DTD/sodipodi-0.dtd"
   xmlns="http://www.w3.org/2000/svg"
   xmlns:svg="http://www.w3.org/2000/svg">
  <defs
     id="defs1" />
  <sodipodi:namedview
     id="namedview1"
     pagecolor="#ffffff"
     bordercolor="#000000"
     borderopacity="0.25"
     inkscape:showpageshadow="2"
     inkscape:pageopacity="0.0"
     inkscape:pagecheckerboard="0"
     inkscape:deskcolor="#d1d1d1"
     inkscape:zoom="0.63163265"
     inkscape:cx="537.49596"
     inkscape:cy="425.88045"
     inkscape:window-width="1920"
     inkscape:window-height="1011"
     inkscape:window-x="0"
     inkscape:window-y="32"
     inkscape:window-maximized="1"
     inkscape:current-layer="g1" />
  <g
     inkscape:groupmode="layer"
     inkscape:label="Image"
     id="g1">
    <g
       id="g2">
      <path
         style="display:inline;fill:#e7b23b"
         d="M 461.33333,980.44676 C 383.40839,976.26789 301.95979,950.88366 235.06586,909.92835 104.21339,829.81489 18.890417,695.83797 2.0250182,543.99999 -0.6506863,519.91081 -0.65292966,461.45523 2.0209246,437.33332 17.072531,301.54677 85.953023,180.54742 195.04763,98.251745 269.97345,41.731345 359.18244,8.281326 454,1.1543413 477.89375,-0.64163795 527.47857,0.44798249 548.92324,3.2402677 608.75341,11.030684 659.45575,26.436313 711.06739,52.506878 860.28114,127.87915 961.3897,274.7978 977.9942,440.37241 c 2.58798,25.80651 2.58916,75.84375 0.002,100.29425 -11.80939,111.62281 -58.68443,211.76807 -136.59509,291.82593 -39.74783,40.84326 -82.15919,71.82984 -133.58293,97.59832 -74.92345,37.5442 -160.2668,54.97947 -246.48522,50.35585 z"
         id="path3" />
      <path
         style="display:inline;fill:#2b333b"
         d="M 441.33333,977.92841 C 381.38189,970.5197 344.43835,960.88399 295.50667,939.89354 143.60478,874.73146 32.44802,732.53269 6.8820675,570.66665 0.82366994,532.30905 0.66666667,530.28822 0.66666667,490.66666 c 0,-40.54455 0.45381723,-46.13877 6.79485123,-83.76041 C 29.546961,275.87231 106.50981,157.50942 218,83.114386 272.87129,46.499939 339.16803,19.685947 402,8.6948248 434.11391,3.0771752 454.96096,1.333645 490,1.3349969 c 43.81546,0.00169 77.30232,3.856048 116.05425,13.3579161 164.27504,40.27979 296.24262,162.352697 349.0735,322.900657 10.08004,30.63227 15.49305,55.56361 22.37887,103.07309 2.25102,15.53111 2.37703,84.10424 0.18009,98 -0.86956,5.5 -2.23534,14.8 -3.03507,20.66666 -6.84038,50.17997 -23.60327,104.07076 -46.66819,150.03297 -47.79625,95.24515 -126.48024,173.50878 -221.31678,220.13444 -70.23974,34.53283 -140.8211,50.72657 -219.33334,50.32248 -17.6,-0.0906 -38.3,-0.94325 -46,-1.8948 z M 772.13437,706.43688 c 6.93343,-2.39122 11.60564,-6.39122 14.5361,-12.44475 2.625,-5.42253 2.66286,-8.32022 2.66286,-203.79956 0,-191.95385 -0.0808,-198.4571 -2.52478,-203.24569 -3.11858,-6.11032 -6.14746,-8.9163 -12.48119,-11.5627 -4.36493,-1.82379 -35.87729,-2.04761 -284.61787,-2.02157 -270.30429,0.0283 -279.89403,0.11308 -285.19761,2.52154 -3.01846,1.37074 -7.21846,4.76078 -9.33333,7.53343 l -3.84522,5.04118 -0.34615,200.46526 c -0.34147,197.7476 -0.31024,200.53566 2.30314,205.65833 2.82453,5.53652 8.5312,10.32115 14.43149,12.09976 6.09405,1.83701 559.07166,1.59675 564.41256,-0.24523 z M 289.63668,655.66665 c 0.28906,-0.91666 31.92312,-29.69279 70.29791,-63.94694 55.06052,-49.1482 70.22494,-62.02775 71.91887,-61.08265 1.1806,0.65869 11.44654,9.39363 22.81321,19.41097 11.36666,10.01734 22.59739,19.05453 24.95717,20.08265 5.77906,2.51785 15.55744,2.3605 20.77571,-0.33431 2.34691,-1.21199 14.10225,-10.81199 26.12296,-21.33333 12.02072,-10.52135 22.53539,-19.12972 23.36593,-19.12972 1.9392,0 142.11156,124.97222 142.11156,126.70114 0,0.83719 -71.60109,1.29886 -201.44444,1.29886 -160.54697,0 -201.33775,-0.33837 -200.91888,-1.66667 z M 240,497.44443 c 0,-73.39444 0.45,-133.43315 1,-133.41936 1.30889,0.0328 148.71086,129.00728 149.94706,131.20137 0.62892,1.11624 -24.13306,24.03577 -73.71186,68.22723 -41.06241,36.60047 -75.23859,66.74632 -75.94706,66.99076 C 240.46513,630.72839 240,582.7039 240,497.44443 Z m 423.5505,65.64623 c -40.81944,-36.37239 -74.21717,-66.88466 -74.21717,-67.80505 0,-1.73495 147.57371,-131.28562 149.55002,-131.28562 1.4598,0 1.46028,263.63024 4.8e-4,264.53245 -0.61389,0.37941 -34.51389,-29.0694 -75.33333,-65.44178 z M 386,424.47476 c -55.73333,-48.76723 -101.52733,-89.52428 -101.76443,-90.57123 -0.37205,-1.64279 27.6983,-1.90354 204.92131,-1.90354 122.54021,0 205.65606,0.49132 206.10538,1.21833 0.9356,1.51384 0.12444,2.23901 -111.77949,99.93022 -50.51781,44.10163 -92.81781,80.14184 -94,80.08934 C 488.30058,513.18539 441.73333,473.24199 386,424.47476 Z"
         id="path2" />
    </g>
  </g>
</svg>
