<?xml version="1.0" encoding="UTF-8" standalone="no"?>
<svg
   version="1.1"
   width="447.2222pt"
   height="380.55554pt"
   viewBox="0 0 447.2222 380.55555"
   id="svg234"
   sodipodi:docname="eirbware.svg"
   inkscape:version="1.3.2 (091e20ef0f, 2023-11-25)"
   xmlns:inkscape="http://www.inkscape.org/namespaces/inkscape"
   xmlns:sodipodi="http://sodipodi.sourceforge.net/DTD/sodipodi-0.dtd"
   xmlns="http://www.w3.org/2000/svg"
   xmlns:svg="http://www.w3.org/2000/svg">
  <defs
     id="defs234" />
  <sodipodi:namedview
     id="namedview234"
     pagecolor="#ffffff"
     bordercolor="#000000"
     borderopacity="0.25"
     inkscape:showpageshadow="2"
     inkscape:pageopacity="0.0"
     inkscape:pagecheckerboard="0"
     inkscape:deskcolor="#d1d1d1"
     inkscape:document-units="pt"
     inkscape:zoom="1.0767348"
     inkscape:cx="255.86615"
     inkscape:cy="175.53068"
     inkscape:window-width="1854"
     inkscape:window-height="1011"
     inkscape:window-x="66"
     inkscape:window-y="32"
     inkscape:window-maximized="1"
     inkscape:current-layer="svg234" />
  <circle
     style="fill:#000000;fill-opacity:1;stroke:#000000;stroke-width:0;paint-order:stroke fill markers"
     id="path235"
     cx="223.6111"
     cy="190.27777"
     r="190" />
  <g
     clip-path="url(#cp6)"
     id="g229"
     style="display:inline"
     transform="translate(-2.6073752,-3.2029124)">
    <g
       inkscape:groupmode="layer"
       id="layer1"
       inkscape:label="invisible_edges"
       transform="translate(2.6583522,1.13e-5)"
       style="display:inline">
      <path
         transform="matrix(2.7777777,0,0,-2.7777777,149.01196,275.23947)"
         d="M 0,0 C 0.49,1.141 0.911,2.123 1.332,3.105 1.452,3.385 1.244,3.377 1.075,3.378 0.377,3.382 -0.321,3.374 -1.019,3.38 -1.399,3.384 -1.449,3.224 -1.304,2.906 -0.891,2.004 -0.491,1.097 0,0 M 4.032,28.973 C 3.631,29.053 3.169,28.911 2.805,28.557 2.208,27.975 1.873,27.218 1.517,26.48 1.467,26.375 1.46,26.293 1.558,26.206 c 0.351,-0.315 1.129,-0.24 1.401,0.153 0.447,0.648 0.873,1.3 1.843,1.084 0.292,-0.065 0.451,0.143 0.496,0.442 0.122,0.822 -0.171,1.105 -1.266,1.088 m -9.353,-0.789 c -0.083,-0.534 0.225,-0.818 0.799,-0.724 0.73,0.12 1.078,-0.285 1.385,-0.832 0.528,-0.944 0.377,-0.797 1.488,-0.51 0.287,0.073 0.303,0.196 0.18,0.452 -0.275,0.572 -0.577,1.127 -0.96,1.631 -0.518,0.683 -1.643,1.013 -2.45,0.74 -0.323,-0.109 -0.469,-0.338 -0.442,-0.757 m 1.352,-15.008 c 0.376,0 0.604,0 0.832,0 1.906,10e-4 3.811,-0.007 5.716,0.009 0.452,0.004 1.12,-0.221 1.3,0.115 0.181,0.338 -0.379,0.777 -0.588,1.186 -0.169,0.329 -0.36,0.586 -0.81,0.58 -1.63,-0.024 -3.261,-0.012 -4.891,-0.011 -0.195,10e-4 -0.383,-0.003 -0.503,-0.194 -0.323,-0.516 -0.647,-1.032 -1.056,-1.685 m -6.584,13.915 c -0.484,0 -0.801,0.006 -1.118,-0.001 -0.593,-0.013 -0.806,-0.357 -0.621,-0.923 0.208,-0.635 0.718,-0.589 1.193,-0.529 0.987,0.125 1.652,-0.239 2.207,-1.077 0.725,-1.097 1.488,-2.217 2.918,-2.53 0.234,-0.051 0.483,-0.355 0.683,-0.137 0.185,0.203 0.198,0.548 0.171,0.845 -0.023,0.261 -0.24,0.4 -0.433,0.516 -0.968,0.581 -1.603,1.468 -2.276,2.341 -0.713,0.924 -1.499,1.828 -2.724,1.495 M 5.188,22.446 c 0.042,-0.83 0.023,-0.781 0.762,-0.511 1.129,0.412 1.993,1.077 2.621,2.123 0.676,1.124 1.613,1.88 3.06,1.567 0.041,-0.008 0.085,0.002 0.127,0.001 0.591,-0.016 0.671,0.388 0.699,0.844 0.03,0.484 -0.248,0.624 -0.668,0.624 -0.464,0 -0.93,0.024 -1.393,0.004 C 10.088,27.085 9.76,27.197 9.472,26.99 8.871,26.559 8.21,26.16 7.816,25.535 7.207,24.568 6.45,23.776 5.5,23.162 5.211,22.975 5.089,22.751 5.188,22.446 M 6.344,12.474 C 6.465,11.735 6.716,10.793 7.092,10.551 7.857,10.059 7.715,9.353 7.72,8.66 7.726,7.983 7.816,7.292 7.709,6.633 7.412,4.805 8.033,3.45 9.616,2.516 9.652,2.495 9.681,2.463 9.713,2.435 c 0.31,-0.276 0.641,-0.353 0.947,-0.021 0.312,0.339 0.466,0.72 0.059,1.107 -0.337,0.32 -0.662,0.659 -1.032,0.936 -0.417,0.312 -0.539,0.688 -0.53,1.197 0.027,1.542 0.005,3.086 10e-4,4.629 0,0.23 0.032,0.468 -0.171,0.647 -0.762,0.673 -1.563,1.278 -2.643,1.544 M -0.031,7.213 c -1.248,0 -2.496,0.008 -3.744,-0.004 C -4.144,7.205 -4.696,7.381 -4.838,7.102 -5.002,6.78 -4.557,6.405 -4.393,6.046 -4.14,5.493 -3.765,5.263 -3.107,5.284 -1.269,5.34 0.58,5.404 2.409,5.267 3.617,5.177 4.23,5.645 4.672,6.659 4.862,7.094 4.884,7.232 4.347,7.223 2.888,7.199 1.428,7.215 -0.031,7.213 m -6.162,5.141 c -1.124,-0.269 -1.94,-0.803 -2.73,-1.402 -0.28,-0.212 -0.394,-0.448 -0.39,-0.801 0.015,-1.289 -0.057,-2.582 0.018,-3.868 0.059,-1.008 -0.129,-1.822 -1.036,-2.379 -0.174,-0.107 -0.303,-0.291 -0.442,-0.449 -0.33,-0.377 -0.247,-0.741 0.069,-1.07 0.318,-0.329 0.625,-0.237 0.938,0.041 0.504,0.449 1.008,0.903 1.545,1.31 0.341,0.257 0.461,0.541 0.455,0.964 -0.021,1.585 -0.007,3.171 0.003,4.757 0.001,0.221 -0.095,0.518 0.167,0.633 0.97,0.424 0.903,1.431 1.403,2.264 m 6.13,-3.183 V 9.167 c 1.544,0 3.089,-0.004 4.633,10e-4 1.021,0.004 1.02,0.01 0.572,0.889 C 5.036,10.264 4.909,10.464 4.833,10.682 4.686,11.108 4.416,11.23 3.967,11.224 1.64,11.196 -0.687,11.204 -3.015,11.2 -4.62,11.197 -4.609,11.192 -5.302,9.742 -5.51,9.308 -5.473,9.156 -4.951,9.163 c 1.629,0.021 3.258,0.008 4.888,0.008 m -3.491,11.897 c -0.017,-1.879 1.516,-3.412 3.423,-3.422 1.962,-0.01 3.553,1.522 3.571,3.439 0.017,1.759 -1.583,3.354 -3.37,3.362 -1.996,0.009 -3.607,-1.493 -3.624,-3.379 m -0.232,-4.279 c -0.154,0.031 -0.212,0.053 -0.269,0.052 -2.714,-0.006 -5.418,-0.084 -7.989,-1.119 -0.443,-0.178 -0.858,-0.119 -1.11,0.311 -0.237,0.403 -0.072,0.784 0.232,1.091 0.145,0.147 0.328,0.267 0.511,0.366 0.598,0.32 1.23,0.56 1.883,0.743 1.623,0.455 3.282,0.585 4.958,0.575 0.157,-0.001 0.369,-0.103 0.467,0.068 0.111,0.191 -0.056,0.367 -0.162,0.512 -0.202,0.276 -0.488,0.454 -0.799,0.604 -1.208,0.581 -2.482,0.959 -3.79,1.222 -2.202,0.444 -4.413,0.763 -6.663,0.362 -1.654,-0.295 -3.076,-1.564 -3.401,-3.044 -0.358,-1.625 0.35,-3.253 1.841,-4.258 1.578,-1.064 3.379,-1.476 5.219,-1.554 2.22,-0.095 4.306,0.541 6.22,1.686 1.05,0.628 2.098,1.262 2.852,2.383 m 18.452,4.927 C 13.885,21.772 13.045,21.671 12.204,21.57 9.947,21.299 7.736,20.858 5.701,19.78 5.478,19.661 5.246,19.555 5.113,19.317 4.952,19.029 4.859,18.8 5.352,18.811 c 1.08,0.022 2.156,-0.042 3.23,-0.158 1.485,-0.159 2.908,-0.533 4.216,-1.271 0.623,-0.352 0.832,-0.827 0.592,-1.288 -0.296,-0.567 -0.811,-0.504 -1.275,-0.326 -2.438,0.934 -4.987,1.057 -7.552,1.084 -0.176,0.001 -0.433,0.084 -0.511,-0.115 -0.073,-0.186 0.143,-0.329 0.272,-0.46 1.13,-1.143 2.449,-2.006 3.931,-2.62 3.442,-1.428 6.818,-1.293 10.046,0.58 1.375,0.797 2.06,2.096 1.924,3.735 -0.138,1.656 -1.08,2.693 -2.573,3.312 -0.94,0.39 -1.919,0.466 -2.986,0.432 m 6.722,-0.482 c 0.147,0.221 0.084,0.435 0.084,0.636 0.004,1.927 -0.064,3.858 0.028,5.781 0.046,0.968 -0.297,1.457 -1.114,1.914 -6.594,3.687 -13.171,7.404 -19.726,11.159 -0.715,0.409 -1.245,0.343 -1.883,-0.023 -2.366,-1.361 -4.743,-2.703 -7.115,-4.054 -4.248,-2.42 -8.496,-4.841 -12.743,-7.264 -0.328,-0.188 -0.617,-0.352 -0.61,-0.851 0.035,-2.414 0.018,-4.829 0.026,-7.244 0,-0.151 -0.076,-0.341 0.173,-0.464 0.632,0.608 1.349,1.132 2.138,1.536 0.344,0.176 0.432,0.396 0.429,0.747 -0.012,1.228 0.03,2.458 -0.014,3.685 -0.019,0.545 0.178,0.817 0.642,1.077 5.876,3.295 11.74,6.609 17.6,9.931 0.349,0.198 0.61,0.15 0.932,-0.033 2.281,-1.297 4.572,-2.575 6.854,-3.869 3.664,-2.077 7.313,-4.18 10.996,-6.222 0.521,-0.289 0.661,-0.588 0.653,-1.123 -0.017,-1.08 0.017,-2.16 0.036,-3.24 0.004,-0.206 -0.016,-0.422 0.209,-0.561 0.802,-0.499 1.598,-1.007 2.405,-1.518 m 0.095,-7.047 C 20.713,13.711 20.128,12.985 19.325,12.561 18.886,12.33 18.773,12.011 18.776,11.536 18.787,9.333 18.735,7.13 18.766,4.928 18.776,4.268 18.562,3.892 17.993,3.573 12.082,0.262 6.182,-3.068 0.285,-6.405 c -0.304,-0.172 -0.522,-0.151 -0.812,0.015 -5.951,3.403 -11.907,6.801 -17.867,10.189 -0.369,0.21 -0.539,0.441 -0.534,0.893 0.023,2.054 -0.045,4.111 0.019,6.163 0.03,0.977 -0.103,1.73 -1.039,2.254 -0.542,0.303 -0.971,0.806 -1.456,1.214 -0.039,0.032 -0.113,0.022 -0.195,0.036 -0.013,-0.12 -0.034,-0.221 -0.034,-0.323 -0.004,-3.728 -0.003,-7.457 -0.015,-11.185 -0.002,-0.362 0.188,-0.526 0.464,-0.678 1.39,-0.765 2.786,-1.522 4.162,-2.311 5.437,-3.116 10.942,-6.111 16.326,-9.317 0.377,-0.225 0.7,-0.243 1.102,-0.008 1.289,0.755 2.604,1.462 3.906,2.193 5.332,2.994 10.65,6.012 16.005,8.963 0.875,0.483 1.192,1.005 1.174,2.01 -0.063,3.493 -0.012,6.987 -0.005,10.482 0.006,0.015 0.013,0.031 0.019,0.047 z m 4.033,1.693 C 25.515,11.39 25.511,6.9 25.517,2.41 25.519,0.818 24.898,-0.43 23.5,-1.224 c -2.904,-1.651 -5.822,-3.279 -8.734,-4.917 -3.925,-2.208 -7.858,-4.401 -11.77,-6.631 -1.289,-0.735 -2.595,-1.225 -4.106,-0.914 -0.596,0.123 -1.101,0.429 -1.614,0.718 -7.018,3.957 -14.029,7.926 -21.051,11.875 -1.397,0.785 -2.044,1.959 -2.043,3.527 0.004,8.853 0.033,17.705 -0.006,26.558 -0.008,1.817 0.691,3.041 2.259,3.915 5.449,3.036 10.875,6.113 16.309,9.175 1.512,0.852 3.018,1.712 4.533,2.557 1.625,0.907 3.232,0.902 4.873,-0.023 7.038,-3.968 14.083,-7.923 21.139,-11.861 1.533,-0.856 2.281,-2.037 2.251,-3.851 -0.072,-4.34 -0.023,-8.683 -0.024,-13.024"
         fill="#05080c"
         id="path175"
         style="display:inline" />
      <path
         transform="matrix(2.7777777,0,0,-2.7777777,164.21159,98.433578)"
         d="m 0,0 h -0.012 c 0,-4.236 0.004,-8.472 -0.007,-12.707 0,-0.355 0.08,-0.569 0.426,-0.738 0.74,-0.363 1.452,-0.782 2.173,-1.184 5.987,-3.338 11.981,-6.665 17.952,-10.031 0.714,-0.403 1.255,-0.395 1.963,0.003 6.636,3.738 13.288,7.449 19.948,11.145 0.439,0.243 0.512,0.538 0.511,0.968 -0.006,8.366 -0.007,16.731 0.006,25.097 0,0.423 -0.149,0.64 -0.507,0.838 -6.704,3.707 -13.406,7.416 -20.089,11.161 -0.688,0.385 -1.172,0.384 -1.868,-0.006 C 13.869,20.833 7.218,17.16 0.562,13.499 0.122,13.257 -0.012,12.996 -0.01,12.517 0.007,8.345 0,4.172 0,0 m -4.22,0.043 c 0,4.469 0.019,8.938 -0.01,13.406 -0.009,1.519 0.624,2.55 1.954,3.27 2.919,1.579 5.812,3.208 8.711,4.825 4.266,2.379 8.534,4.752 12.785,7.156 1.481,0.837 2.895,0.84 4.377,0.009 6.974,-3.911 13.96,-7.801 20.941,-11.699 0.332,-0.186 0.66,-0.377 0.987,-0.572 1.055,-0.63 1.559,-1.573 1.56,-2.79 0.007,-9.001 0,-18.002 0.027,-27.003 0.005,-1.602 -0.611,-2.703 -2.035,-3.49 -6.588,-3.643 -13.148,-7.336 -19.719,-11.01 -0.739,-0.413 -1.47,-0.841 -2.223,-1.225 -1.093,-0.558 -2.227,-0.522 -3.288,0.031 -4.295,2.24 -8.46,4.714 -12.688,7.075 -3.083,1.721 -6.15,3.476 -9.271,5.127 -1.485,0.786 -2.139,1.868 -2.118,3.548 0.055,4.447 0.019,8.895 0.019,13.342 z"
         fill="#05080c"
         id="path176"
         style="display:inline" />
      <path
         transform="matrix(2.7777777,0,0,-2.7777777,358.30305,231.69639)"
         d="m 0,0 h 0.008 c 0,4.172 -0.012,8.343 0.013,12.514 0.004,0.585 -0.151,0.978 -0.693,1.192 -0.803,0.317 -1.455,0.886 -2.196,1.304 -4.45,2.512 -8.811,5.181 -13.334,7.566 -1.358,0.716 -2.654,1.549 -3.985,2.318 -0.758,0.437 -1.274,0.596 -2.132,0.036 -1.848,-1.208 -3.85,-2.178 -5.774,-3.271 -4.802,-2.729 -9.593,-5.475 -14.394,-8.205 -0.367,-0.208 -0.531,-0.437 -0.529,-0.891 0.019,-8.407 0.02,-16.813 0.012,-25.22 0,-0.457 0.142,-0.724 0.556,-0.95 2.149,-1.175 4.276,-2.388 6.416,-3.579 4.75,-2.645 9.504,-5.285 14.254,-7.931 0.308,-0.171 0.549,-0.249 0.914,-0.04 6.734,3.866 13.477,7.716 20.23,11.55 0.465,0.265 0.647,0.558 0.645,1.093 C -0.009,-8.343 0,-4.171 0,0 m 4.19,0.163 c 0,-4.491 0.002,-8.982 -0.001,-13.473 -0.001,-1.461 -0.549,-2.605 -1.87,-3.356 -5.424,-3.084 -10.835,-6.19 -16.254,-9.284 -1.69,-0.964 -3.39,-1.912 -5.083,-2.873 -1.53,-0.868 -3.099,-0.864 -4.602,-0.033 -7.18,3.975 -14.331,8.001 -21.513,11.972 -1.529,0.845 -2.089,2.13 -2.091,3.765 -0.006,5.275 -0.005,10.549 -0.005,15.824 10e-4,3.537 0.035,7.075 -0.006,10.613 -0.019,1.617 0.637,2.729 2.04,3.507 4.346,2.413 8.676,4.856 13.008,7.295 2.802,1.577 5.599,3.164 8.393,4.755 1.124,0.641 2.304,0.917 3.593,0.684 0.577,-0.105 1.073,-0.386 1.567,-0.667 C -13.03,25.695 -7.431,22.49 -1.83,19.287 -0.453,18.499 0.927,17.718 2.298,16.921 3.552,16.191 4.19,15.119 4.183,13.635 4.163,9.144 4.176,4.653 4.176,0.163 Z"
         fill="#05080c"
         id="path177"
         style="display:inline" />
    </g>
    <path
       transform="matrix(2.7777777,0,0,-2.7777777,211.35388,235.8378)"
       d="m 0,0 c -0.008,-3.494 -0.058,-6.989 0.005,-10.482 0.018,-1.005 -0.299,-1.527 -1.175,-2.009 -5.354,-2.952 -10.673,-5.969 -16.004,-8.963 -1.302,-0.731 -2.617,-1.439 -3.906,-2.193 -0.402,-0.236 -0.725,-0.217 -1.102,0.007 -5.385,3.206 -10.889,6.202 -16.326,9.317 -1.377,0.789 -2.772,1.546 -4.162,2.311 -0.276,0.152 -0.466,0.316 -0.465,0.679 0.013,3.728 0.011,7.456 0.016,11.184 0,0.102 0.021,0.204 0.034,0.323 0.081,-0.013 0.156,-0.003 0.195,-0.036 0.484,-0.407 0.914,-0.91 1.455,-1.213 0.937,-0.524 1.07,-1.278 1.04,-2.254 -0.064,-2.053 0.004,-4.109 -0.019,-6.163 -0.005,-0.452 0.165,-0.683 0.534,-0.893 5.96,-3.389 11.916,-6.786 17.867,-10.19 0.289,-0.166 0.508,-0.187 0.812,-0.015 5.897,3.337 11.797,6.668 17.708,9.979 0.568,0.319 0.782,0.695 0.773,1.354 -0.031,2.202 0.021,4.406 0.009,6.609 -0.002,0.475 0.111,0.793 0.549,1.025 0.804,0.423 1.389,1.15 2.159,1.626 z"
       fill="#f0d73b"
       id="path178"
       style="display:inline" />
    <path
       transform="matrix(2.7777777,0,0,-2.7777777,211.08245,216.255)"
       d="m 0,0 c -0.808,0.511 -1.604,1.019 -2.405,1.517 -0.225,0.14 -0.205,0.355 -0.209,0.562 -0.019,1.08 -0.054,2.16 -0.037,3.239 0.009,0.536 -0.131,0.835 -0.652,1.123 -3.683,2.043 -7.333,4.145 -10.996,6.222 -2.283,1.294 -4.574,2.573 -6.854,3.87 -0.322,0.183 -0.583,0.23 -0.933,0.032 -5.86,-3.321 -11.724,-6.636 -17.599,-9.93 -0.465,-0.261 -0.662,-0.532 -0.642,-1.077 0.043,-1.227 0.002,-2.457 0.013,-3.686 0.004,-0.35 -0.084,-0.57 -0.429,-0.746 -0.789,-0.404 -1.506,-0.928 -2.138,-1.537 -0.248,0.123 -0.172,0.314 -0.173,0.465 -0.008,2.414 0.009,4.829 -0.025,7.244 -0.007,0.498 0.281,0.663 0.61,0.85 4.247,2.424 8.494,4.845 12.743,7.265 2.371,1.351 4.748,2.693 7.115,4.053 0.637,0.367 1.167,0.433 1.882,0.023 C -14.173,15.735 -7.596,12.018 -1.003,8.331 -0.185,7.874 0.157,7.385 0.111,6.417 0.02,4.494 0.088,2.563 0.084,0.636 0.083,0.435 0.146,0.221 0,0"
       fill="#f0d73b"
       id="path179" />
    <path
       transform="matrix(2.7777777,0,0,-2.7777777,192.41028,214.9169)"
       d="M 0,0 C 1.067,0.033 2.045,-0.042 2.986,-0.432 4.479,-1.051 5.42,-2.088 5.558,-3.744 5.695,-5.383 5.01,-6.682 3.635,-7.48 0.407,-9.352 -2.97,-9.487 -6.411,-8.06 c -1.483,0.615 -2.801,1.477 -3.931,2.621 -0.13,0.131 -0.345,0.274 -0.272,0.46 0.078,0.199 0.335,0.116 0.511,0.115 2.565,-0.027 5.114,-0.15 7.552,-1.085 0.464,-0.177 0.978,-0.241 1.274,0.327 0.241,0.461 0.031,0.936 -0.592,1.288 -1.308,0.738 -2.73,1.112 -4.215,1.271 -1.074,0.116 -2.15,0.18 -3.23,0.158 -0.493,-0.011 -0.401,0.218 -0.24,0.506 0.134,0.238 0.366,0.344 0.589,0.463 2.035,1.078 4.246,1.519 6.503,1.79 C -1.622,-0.045 -0.781,0.056 0,0"
       fill="#fdfef9"
       id="path180" />
    <path
       transform="matrix(2.7777777,0,0,-2.7777777,141.15329,228.60277)"
       d="m 0,0 c -0.754,-1.121 -1.802,-1.755 -2.852,-2.383 -1.914,-1.145 -4,-1.781 -6.22,-1.686 -1.84,0.078 -3.641,0.49 -5.219,1.554 -1.491,1.005 -2.199,2.632 -1.841,4.258 0.325,1.48 1.747,2.749 3.401,3.044 2.25,0.401 4.461,0.082 6.663,-0.362 1.308,-0.263 2.582,-0.641 3.79,-1.222 0.311,-0.15 0.597,-0.328 0.799,-0.605 0.106,-0.144 0.273,-0.32 0.162,-0.511 C -1.415,1.916 -1.627,2.018 -1.784,2.019 -3.46,2.029 -5.119,1.899 -6.742,1.444 -7.395,1.26 -8.026,1.021 -8.625,0.701 -8.808,0.602 -8.991,0.482 -9.136,0.335 -9.44,0.028 -9.605,-0.353 -9.368,-0.756 c 0.252,-0.43 0.667,-0.489 1.11,-0.311 2.571,1.034 5.275,1.113 7.989,1.119 C -0.212,0.052 -0.154,0.031 0,0"
       fill="#fdfef9"
       id="path181" />
    <path
       transform="matrix(2.7777777,0,0,-2.7777777,141.79772,216.71828)"
       d="M 0,0 C 0.017,1.886 1.628,3.389 3.624,3.38 5.412,3.372 7.011,1.776 6.994,0.018 6.976,-1.899 5.385,-3.432 3.423,-3.422 1.516,-3.412 -0.017,-1.879 0,0"
       fill="#fdfef9"
       id="path182" />
    <path
       transform="matrix(2.7777777,0,0,-2.7777777,151.49417,249.76552)"
       d="m 0,0 c -1.629,0 -3.259,0.014 -4.887,-0.008 -0.523,-0.007 -0.559,0.146 -0.352,0.579 0.694,1.45 0.682,1.455 2.288,1.458 C -0.624,2.033 1.703,2.026 4.031,2.054 4.479,2.059 4.75,1.937 4.897,1.511 4.972,1.293 5.1,1.094 5.205,0.886 5.654,0.007 5.654,0.001 4.634,-0.003 3.089,-0.008 1.545,-0.004 0,-0.004 Z"
       fill="#f0d73b"
       id="path183" />
    <path
       transform="matrix(2.7777777,0,0,-2.7777777,134.46842,240.92195)"
       d="m 0,0 c -0.5,-0.833 -0.433,-1.84 -1.403,-2.265 -0.262,-0.114 -0.166,-0.411 -0.168,-0.632 -0.009,-1.586 -0.023,-3.172 -0.002,-4.757 0.006,-0.424 -0.115,-0.707 -0.455,-0.964 -0.537,-0.407 -1.041,-0.861 -1.545,-1.31 -0.313,-0.278 -0.621,-0.37 -0.938,-0.041 -0.317,0.328 -0.399,0.693 -0.07,1.069 0.139,0.159 0.269,0.343 0.443,0.45 0.907,0.557 1.095,1.371 1.036,2.379 -0.075,1.285 -0.003,2.579 -0.018,3.868 -0.004,0.353 0.11,0.588 0.39,0.801 C -1.941,-0.803 -1.124,-0.27 0,0"
       fill="#fdfef9"
       id="path184" />
    <path
       transform="matrix(2.7777777,0,0,-2.7777777,151.5842,255.20001)"
       d="M 0,0 C 1.459,0.001 2.919,-0.015 4.378,0.009 4.915,0.018 4.893,-0.12 4.703,-0.555 4.261,-1.57 3.648,-2.037 2.44,-1.947 c -1.829,0.137 -3.678,0.073 -5.516,0.016 -0.658,-0.02 -1.033,0.21 -1.286,0.763 -0.164,0.359 -0.609,0.733 -0.445,1.056 0.142,0.279 0.694,0.103 1.063,0.106 C -2.496,0.007 -1.248,-0.001 0,0"
       fill="#f0d73b"
       id="path185" />
    <path
       transform="matrix(2.7777777,0,0,-2.7777777,169.29134,240.59058)"
       d="M 0,0 C 1.08,-0.265 1.881,-0.87 2.644,-1.543 2.847,-1.723 2.814,-1.96 2.815,-2.191 2.818,-3.734 2.84,-5.277 2.813,-6.82 2.804,-7.329 2.926,-7.704 3.343,-8.016 3.713,-8.294 4.038,-8.633 4.375,-8.953 4.782,-9.339 4.629,-9.72 4.317,-10.059 4.011,-10.392 3.68,-10.315 3.369,-10.039 3.338,-10.011 3.308,-9.978 3.272,-9.957 1.689,-9.023 1.069,-7.668 1.366,-5.84 1.473,-5.182 1.383,-4.49 1.377,-3.814 1.371,-3.12 1.514,-2.415 0.748,-1.922 0.372,-1.681 0.122,-0.739 0,0"
       fill="#fdfef9"
       id="path186" />
    <path
       transform="matrix(2.7777777,0,0,-2.7777777,166.08106,212.88808)"
       d="M 0,0 C -0.099,0.305 0.023,0.529 0.312,0.716 1.262,1.33 2.019,2.122 2.628,3.089 3.022,3.714 3.683,4.113 4.284,4.544 4.572,4.75 4.9,4.638 5.208,4.652 5.671,4.672 6.137,4.648 6.601,4.648 7.021,4.647 7.299,4.508 7.269,4.023 7.241,3.568 7.161,3.164 6.57,3.179 6.528,3.18 6.484,3.17 6.443,3.179 4.996,3.491 4.059,2.736 3.383,1.611 2.755,0.566 1.891,-0.099 0.762,-0.512 0.023,-0.781 0.042,-0.831 0,0"
       fill="#fdfef9"
       id="path187" />
    <path
       transform="matrix(2.7777777,0,0,-2.7777777,122.35616,199.98558)"
       d="M 0,0 C 1.225,0.332 2.011,-0.571 2.724,-1.496 3.398,-2.369 4.033,-3.255 5,-3.837 5.193,-3.953 5.41,-4.092 5.434,-4.352 5.46,-4.649 5.447,-4.994 5.262,-5.197 c -0.2,-0.218 -0.449,0.086 -0.683,0.137 -1.43,0.313 -2.192,1.432 -2.918,2.53 -0.555,0.838 -1.22,1.201 -2.207,1.076 -0.475,-0.06 -0.985,-0.105 -1.193,0.529 -0.185,0.566 0.028,0.911 0.621,0.924 C -0.801,0.006 -0.484,0 0,0"
       fill="#fdfef9"
       id="path188" />
    <path
       transform="matrix(2.7777777,0,0,-2.7777777,140.64534,238.6394)"
       d="M 0,0 C 0.409,0.653 0.733,1.169 1.056,1.685 1.176,1.876 1.364,1.88 1.559,1.879 3.189,1.878 4.82,1.866 6.449,1.89 6.9,1.896 7.091,1.639 7.26,1.31 7.469,0.901 8.028,0.462 7.848,0.124 7.668,-0.212 7,0.013 6.548,0.009 4.643,-0.007 2.737,0.001 0.832,0 0.604,0 0.376,0 0,0"
       fill="#f0d73b"
       id="path189" />
    <path
       transform="matrix(2.7777777,0,0,-2.7777777,136.88829,196.95111)"
       d="M 0,0 C -0.026,0.419 0.12,0.648 0.443,0.758 1.25,1.031 2.374,0.7 2.892,0.017 3.275,-0.487 3.577,-1.042 3.852,-1.614 3.975,-1.87 3.959,-1.992 3.673,-2.066 2.561,-2.353 2.713,-2.5 2.184,-1.556 1.878,-1.009 1.529,-0.604 0.799,-0.724 0.226,-0.818 -0.083,-0.534 0,0"
       fill="#fdfef9"
       id="path190" />
    <path
       transform="matrix(2.7777777,0,0,-2.7777777,162.87146,194.75835)"
       d="M 0,0 C 1.094,0.017 1.388,-0.266 1.265,-1.088 1.221,-1.387 1.061,-1.595 0.77,-1.53 c -0.97,0.216 -1.396,-0.436 -1.844,-1.085 -0.271,-0.393 -1.049,-0.467 -1.4,-0.153 -0.098,0.088 -0.092,0.17 -0.041,0.275 0.356,0.738 0.69,1.495 1.287,2.076 C -0.864,-0.062 -0.401,0.08 0,0"
       fill="#fdfef9"
       id="path191" />
    <path
       transform="matrix(2.7777777,0,0,-2.7777777,151.67032,275.23948)"
       d="M 0,0 C -0.491,1.097 -0.891,2.004 -1.304,2.906 -1.449,3.224 -1.399,3.384 -1.019,3.38 -0.321,3.374 0.377,3.382 1.075,3.378 1.244,3.377 1.452,3.385 1.332,3.105 0.911,2.123 0.49,1.141 0,0"
       fill="#f0d73b"
       id="path192" />
    <path
       transform="matrix(2.7777777,0,0,-2.7777777,211.34609,235.83026)"
       d="M 0,0 0.022,0.045 C 0.015,0.029 0.009,0.013 0.003,-0.003 Z"
       fill="#f0d73b"
       id="path193" />
    <path
       transform="matrix(2.7777777,0,0,-2.7777777,278.60157,98.47107)"
       d="m 0,0 c -0.003,0 -0.005,0 -0.008,0 0,3.663 -0.008,7.326 0.01,10.99 0.002,0.425 -0.149,0.649 -0.507,0.84 -1.269,0.676 -2.526,1.375 -3.784,2.071 -4.703,2.601 -9.405,5.202 -14.102,7.811 -0.318,0.176 -0.572,0.167 -0.88,-0.023 -0.663,-0.408 -1.341,-0.792 -2.023,-1.169 -3.759,-2.077 -7.52,-4.152 -11.284,-6.22 -1.464,-0.804 -2.925,-1.617 -4.42,-2.361 -0.426,-0.212 -0.59,-0.421 -0.59,-0.882 0.013,-7.327 0.014,-14.653 0.008,-21.98 0,-0.399 0.106,-0.632 0.48,-0.846 5.952,-3.401 11.945,-6.73 17.938,-10.057 0.304,-0.168 0.524,-0.158 0.812,0.004 1.198,0.673 2.414,1.317 3.613,1.989 4.67,2.618 9.332,5.25 14.01,7.854 0.552,0.308 0.746,0.677 0.741,1.307 C -0.015,-7.115 0,-3.557 0,0 m -40.223,0.014 c 0,4.172 0.007,8.344 -0.01,12.516 -0.002,0.48 0.132,0.74 0.572,0.982 6.656,3.662 13.306,7.334 19.934,11.048 0.696,0.39 1.18,0.391 1.868,0.005 C -11.177,20.821 -4.474,17.112 2.229,13.404 2.588,13.206 2.737,12.989 2.736,12.567 2.724,4.201 2.725,-4.165 2.731,-12.531 c 0,-0.43 -0.072,-0.724 -0.512,-0.968 -6.66,-3.696 -13.312,-7.406 -19.948,-11.145 -0.707,-0.398 -1.248,-0.405 -1.962,-0.002 -5.972,3.366 -11.965,6.693 -17.952,10.031 -0.721,0.401 -1.434,0.821 -2.174,1.183 -0.345,0.169 -0.426,0.383 -0.425,0.738 0.01,4.236 0.007,8.472 0.007,12.708 z"
       fill="#f0d73b"
       id="path194" />
    <path
       transform="matrix(2.7777777,0,0,-2.7777777,353.2713,231.46718)"
       d="m 0,0 c 0,3.643 -0.018,7.287 0.017,10.93 0.006,0.626 -0.221,0.946 -0.734,1.229 -1.779,0.981 -3.541,1.992 -5.306,2.999 -4.025,2.298 -8.049,4.596 -12.068,6.905 -0.298,0.171 -0.523,0.159 -0.814,-0.012 -0.969,-0.572 -1.948,-1.129 -2.935,-1.669 -5.105,-2.797 -10.108,-5.773 -15.172,-8.643 -0.322,-0.182 -0.502,-0.375 -0.502,-0.784 0.005,-7.392 -0.005,-14.784 -0.017,-22.176 0,-0.271 0.058,-0.464 0.297,-0.643 1.311,-0.986 2.789,-1.692 4.201,-2.503 2.451,-1.409 4.933,-2.764 7.436,-4.082 2.247,-1.182 4.454,-2.439 6.673,-3.674 0.25,-0.139 0.447,-0.153 0.7,-0.004 0.652,0.383 1.326,0.729 1.982,1.106 5.195,2.981 10.386,5.97 15.586,8.942 0.474,0.271 0.676,0.578 0.672,1.149 C -0.012,-7.287 0.002,-3.643 0,0 m 2.768,-0.083 c 0,-4.171 -0.008,-8.343 0.011,-12.514 0.002,-0.535 -0.179,-0.828 -0.645,-1.092 -6.752,-3.835 -13.496,-7.685 -20.23,-11.55 -0.365,-0.21 -0.606,-0.132 -0.913,0.039 -4.75,2.647 -9.504,5.286 -14.255,7.931 -2.139,1.192 -4.267,2.405 -6.415,3.579 -0.414,0.227 -0.557,0.494 -0.556,0.951 0.008,8.406 0.007,16.813 -0.013,25.219 -0.001,0.455 0.163,0.683 0.529,0.892 4.801,2.729 9.593,5.475 14.394,8.204 1.924,1.094 3.926,2.064 5.774,3.271 0.859,0.56 1.375,0.402 2.132,-0.036 1.331,-0.769 2.627,-1.602 3.985,-2.318 4.523,-2.385 8.884,-5.054 13.335,-7.566 C 0.642,14.509 1.294,13.94 2.096,13.624 2.639,13.41 2.793,13.017 2.789,12.432 2.764,8.261 2.776,4.089 2.776,-0.083 Z"
       fill="#f0d73b"
       id="path195" />
    <path
       transform="matrix(2.7777777,0,0,-2.7777777,227.12062,112.84358)"
       d="m 0,0 c -1.99,0 -3.981,-0.014 -5.971,0.011 -0.423,0.005 -0.544,-0.158 -0.463,-0.51 0.07,-0.299 -0.297,-0.82 0.422,-0.818 4.002,0.011 8.005,0.015 12.007,0.003 0.653,-0.002 0.463,0.443 0.503,0.788 C 6.544,-0.123 6.406,0.017 5.971,0.011 3.981,-0.015 1.991,-0.001 0,0 m -0.018,-6.463 v -0.011 c 1.989,0 3.978,0.022 5.966,-0.014 0.524,-0.009 0.579,0.198 0.57,0.625 -0.008,0.401 -0.012,0.642 -0.555,0.638 -3.956,-0.024 -7.912,-0.027 -11.868,0.009 -0.614,0.005 -0.541,-0.29 -0.559,-0.685 -0.02,-0.421 0.081,-0.579 0.544,-0.573 1.967,0.027 3.935,0.011 5.902,0.011 m 0.98,25.212 v -0.003 c -2.033,0 -4.067,-0.018 -6.099,0.013 -0.542,0.008 -0.719,-0.106 -0.711,-0.692 0.036,-2.816 0.021,-5.633 0.016,-8.45 -0.001,-0.88 0.175,-1.086 1.06,-1.087 3.855,-0.002 7.709,0.002 11.564,0.008 0.673,10e-4 0.864,0.196 0.865,0.87 0.004,2.923 -0.01,5.846 0.017,8.768 0.005,0.503 -0.161,0.587 -0.613,0.582 C 5.029,18.736 2.995,18.749 0.962,18.749 M 9.614,18.428 C 9.45,18.209 9.491,18.031 9.49,17.868 9.47,15.01 9.468,12.151 9.434,9.292 9.417,7.837 8.475,6.922 7.023,6.918 2.914,6.908 -1.194,6.905 -5.303,6.907 -6.78,6.908 -7.67,7.805 -7.674,9.274 c -0.008,2.986 -0.019,5.971 -0.01,8.957 0.001,0.383 -0.097,0.531 -0.491,0.519 -0.762,-0.023 -1.524,-0.011 -2.287,-0.012 -1.229,-0.002 -1.349,-0.119 -1.349,-1.332 -10e-4,-7.603 0,-15.206 0,-22.808 0,-0.657 10e-4,-1.313 0.006,-1.97 0.004,-0.498 0.196,-0.798 0.758,-0.782 0.592,0.017 1.185,-0.017 1.778,-0.019 0.962,-0.002 0.811,-0.072 0.814,0.807 0.009,3.262 0.03,6.523 -0.006,9.784 -0.014,1.252 1.018,2.421 2.379,2.399 C -1.932,4.75 2.219,4.802 6.37,4.804 7.761,4.805 8.521,4.044 8.529,2.639 8.538,1.156 8.537,-0.326 8.536,-1.809 8.535,-3.736 8.533,-5.663 8.524,-7.59 8.523,-7.934 8.515,-8.211 9.01,-8.182 c 0.654,0.038 1.312,-0.004 1.969,-10e-4 0.42,0.002 0.676,0.223 0.739,0.638 0.041,0.271 0.076,0.547 0.076,0.82 0.016,7.242 0.024,14.485 0.046,21.727 0.002,0.628 -0.2,1.167 -0.564,1.648 -0.484,0.639 -1.05,1.205 -1.662,1.778 M 18.533,5.174 c 0,-3.557 -0.015,-7.115 0.014,-10.672 0.006,-0.63 -0.189,-0.999 -0.741,-1.306 -4.678,-2.605 -9.34,-5.237 -14.01,-7.855 -1.199,-0.672 -2.414,-1.316 -3.613,-1.989 -0.288,-0.162 -0.508,-0.172 -0.811,-0.004 -5.994,3.327 -11.987,6.656 -17.939,10.057 -0.374,0.214 -0.48,0.447 -0.48,0.846 0.007,7.327 0.005,14.653 -0.007,21.98 -0.001,0.462 0.164,0.67 0.589,0.882 1.495,0.744 2.956,1.557 4.42,2.361 3.765,2.068 7.525,4.144 11.284,6.22 0.682,0.377 1.36,0.761 2.023,1.169 0.308,0.19 0.562,0.199 0.88,0.023 4.698,-2.609 9.4,-5.21 14.102,-7.811 1.258,-0.696 2.515,-1.395 3.784,-2.071 0.358,-0.191 0.509,-0.415 0.507,-0.84 -0.018,-3.663 -0.01,-7.327 -0.01,-10.99 0.003,0 0.005,0 0.008,0"
       fill="#05080c"
       id="path196" />
    <path
       transform="matrix(2.7777777,0,0,-2.7777777,289.7583,190.12857)"
       d="m 0,0 c -0.063,0.08 -0.125,0.16 -0.188,0.24 -2.065,-0.593 -3.927,-1.562 -5.509,-3.053 -0.279,-0.264 -0.145,-0.432 0.123,-0.58 0.517,-0.286 1.043,-0.557 1.544,-0.87 0.364,-0.227 0.555,-0.124 0.748,0.222 0.641,1.145 1.359,2.241 2.28,3.184 C -0.696,-0.544 -0.335,-0.284 0,0 M 8.141,0.159 C 8.134,0.131 8.118,0.099 8.126,0.091 c 1.249,-1.32 2.417,-2.702 3.282,-4.313 0.125,-0.233 0.285,-0.196 0.475,-0.092 0.428,0.232 0.866,0.444 1.289,0.685 1.004,0.573 1.021,0.629 0.143,1.342 -1.379,1.119 -2.954,1.88 -4.64,2.416 -0.17,0.054 -0.352,0.158 -0.534,0.03 m -8.155,-29.861 c -1.347,1.314 -2.471,2.677 -3.327,4.244 -0.173,0.315 -0.376,0.341 -0.667,0.197 -0.472,-0.235 -0.958,-0.445 -1.425,-0.69 -0.715,-0.375 -0.737,-0.479 -0.137,-1.014 1.326,-1.184 2.858,-2.019 4.536,-2.59 0.292,-0.099 0.581,-0.246 1.02,-0.147 m 8.107,-0.034 c 2.171,0.421 4.019,1.422 5.637,2.871 0.35,0.313 0.315,0.557 -0.075,0.783 -0.329,0.19 -0.651,0.396 -0.989,0.569 -1.036,0.529 -1.038,0.524 -1.674,-0.467 -0.068,-0.107 -0.144,-0.209 -0.213,-0.315 -0.785,-1.229 -1.711,-2.346 -2.686,-3.441 m -9.499,5.358 c 1.081,-1.747 2.236,-3.3 4.251,-4.157 0,1.553 -0.002,3.009 0.002,4.466 0,0.243 -0.099,0.346 -0.346,0.324 -1.283,-0.112 -2.574,-0.181 -3.907,-0.633 m 6.507,-1.685 c 0,-0.55 -0.003,-1.101 0.001,-1.651 0.006,-0.817 0.128,-0.907 0.799,-0.482 1.41,0.892 2.411,2.17 3.265,3.576 0.116,0.19 0.098,0.302 -0.133,0.364 -1.148,0.305 -2.303,0.555 -3.501,0.555 -0.333,0 -0.444,-0.134 -0.436,-0.456 0.015,-0.635 0.004,-1.27 0.005,-1.906 M 2.828,-3.464 H 2.819 c 0,0.635 0.006,1.27 -0.002,1.904 -0.009,0.625 -0.094,0.672 -0.637,0.346 -1.435,-0.863 -2.435,-2.133 -3.299,-3.531 -0.225,-0.364 -0.138,-0.567 0.28,-0.683 1.066,-0.296 2.144,-0.468 3.253,-0.46 0.35,0.003 0.427,0.147 0.419,0.457 -0.015,0.656 -0.005,1.312 -0.005,1.967 m 2.295,0.101 H 5.118 c 0,-0.699 10e-4,-1.398 -0.001,-2.097 -0.001,-0.227 0.011,-0.425 0.321,-0.427 1.193,-0.009 2.359,0.151 3.493,0.532 0.239,0.081 0.286,0.208 0.163,0.428 -0.87,1.558 -1.971,2.901 -3.518,3.838 -0.39,0.236 -0.465,0.064 -0.457,-0.305 0.013,-0.656 0.004,-1.313 0.004,-1.969 m -5.75,-12.707 v 0.004 c -0.973,0 -1.947,-0.018 -2.919,0.009 -0.424,0.011 -0.56,-0.126 -0.52,-0.546 0.178,-1.846 0.627,-3.613 1.445,-5.285 0.15,-0.308 0.3,-0.393 0.634,-0.298 1.428,0.408 2.892,0.624 4.37,0.736 0.353,0.027 0.465,0.134 0.461,0.487 -0.016,1.459 -0.021,2.919 0.004,4.378 0.007,0.438 -0.158,0.532 -0.556,0.523 -0.973,-0.024 -1.946,-0.008 -2.919,-0.008 m 9.228,0.002 c -1.015,0 -2.03,-0.007 -3.044,0.004 -0.278,0.003 -0.432,-0.054 -0.431,-0.376 0.002,-1.542 -0.005,-3.085 -0.021,-4.628 -0.003,-0.275 0.105,-0.376 0.369,-0.377 1.535,-0.005 3.019,-0.34 4.487,-0.739 0.388,-0.106 0.536,0.029 0.675,0.337 0.764,1.692 1.184,3.468 1.338,5.315 0.031,0.371 -0.098,0.477 -0.457,0.469 -0.972,-0.019 -1.944,-0.006 -2.916,-0.005 m -17.392,0.003 v 0.005 c -0.676,0 -1.353,-0.007 -2.029,0.003 -0.301,0.005 -0.467,-0.047 -0.433,-0.42 0.27,-2.932 1.258,-5.583 3.05,-7.927 0.195,-0.255 0.368,-0.323 0.689,-0.15 0.834,0.451 1.632,0.977 2.536,1.292 0.309,0.109 0.353,0.287 0.207,0.581 -0.968,1.961 -1.398,4.063 -1.569,6.225 -0.024,0.305 -0.134,0.4 -0.422,0.395 -0.676,-0.012 -1.353,-0.004 -2.029,-0.004 m 8.142,2.311 c 0.973,0 1.947,0.022 2.919,-0.009 0.457,-0.014 0.572,0.158 0.566,0.585 -0.019,1.417 -0.052,2.837 0.017,4.251 0.033,0.686 -0.255,0.815 -0.823,0.834 -1.4,0.049 -2.785,0.215 -4.1,0.731 -0.402,0.157 -0.461,-0.11 -0.575,-0.361 -0.796,-1.751 -1.199,-3.595 -1.377,-5.504 -0.043,-0.465 0.123,-0.54 0.518,-0.533 0.951,0.017 1.903,0.006 2.855,0.006 m 9.177,-0.01 c 0.993,0 1.986,0.003 2.979,-0.002 0.297,-0.002 0.477,0.058 0.447,0.426 -0.165,1.993 -0.695,3.897 -1.386,5.763 -0.087,0.234 -0.212,0.288 -0.432,0.211 -1.47,-0.51 -3.003,-0.675 -4.54,-0.789 -0.449,-0.033 -0.503,-0.232 -0.5,-0.599 0.014,-1.479 0.02,-2.958 0.003,-4.437 -0.005,-0.432 0.121,-0.599 0.576,-0.584 0.95,0.031 1.902,0.009 2.853,0.011 m 8.368,-2.307 c -0.697,0 -1.395,-0.014 -2.092,0.005 -0.363,0.01 -0.518,-0.093 -0.546,-0.49 -0.146,-2.101 -0.592,-4.136 -1.48,-6.057 -0.15,-0.324 -0.08,-0.49 0.237,-0.644 0.854,-0.417 1.714,-0.828 2.531,-1.31 0.386,-0.228 0.552,-0.102 0.77,0.183 0.907,1.184 1.561,2.501 2.109,3.882 0.479,1.205 0.67,2.474 0.913,3.734 0.092,0.476 -0.016,0.756 -0.604,0.707 -0.609,-0.05 -1.225,-0.011 -1.838,-0.01 m -25.762,2.319 v -0.004 c 0.699,0 1.398,0.011 2.097,-0.005 0.313,-0.007 0.452,0.085 0.473,0.422 0.143,2.216 0.716,4.335 1.514,6.395 0.147,0.378 0.031,0.526 -0.268,0.695 -0.809,0.459 -1.618,0.922 -2.406,1.417 -0.297,0.186 -0.441,0.087 -0.627,-0.137 -2.006,-2.412 -2.976,-5.222 -3.227,-8.315 -0.03,-0.372 0.124,-0.483 0.475,-0.473 0.656,0.017 1.313,0.005 1.969,0.005 m 25.664,0.002 v -0.003 c 0.635,0 1.271,0.021 1.904,-0.006 0.471,-0.02 0.673,0.083 0.638,0.63 -0.202,3.1 -1.401,5.801 -3.207,8.276 -0.192,0.263 -0.348,0.213 -0.574,0.064 -0.847,-0.559 -1.716,-1.083 -2.646,-1.493 -0.275,-0.122 -0.33,-0.265 -0.223,-0.532 0.837,-2.091 1.404,-4.247 1.541,-6.503 0.022,-0.378 0.213,-0.445 0.536,-0.438 0.677,0.016 1.354,0.005 2.031,0.005 m 6.067,-1.132 c 0.001,-3.643 -0.013,-7.286 0.016,-10.93 0.004,-0.571 -0.199,-0.878 -0.672,-1.149 -5.2,-2.972 -10.391,-5.961 -15.586,-8.942 -0.656,-0.377 -1.33,-0.722 -1.982,-1.106 -0.254,-0.149 -0.45,-0.135 -0.7,0.004 -2.219,1.235 -4.427,2.492 -6.673,3.674 -2.503,1.318 -4.986,2.673 -7.436,4.082 -1.412,0.812 -2.891,1.517 -4.202,2.503 -0.238,0.179 -0.296,0.372 -0.296,0.643 0.012,7.392 0.022,14.784 0.017,22.176 0,0.409 0.18,0.602 0.502,0.784 5.064,2.87 10.066,5.847 15.172,8.643 0.987,0.54 1.966,1.097 2.935,1.669 0.29,0.171 0.516,0.183 0.813,0.012 4.019,-2.309 8.044,-4.607 12.069,-6.905 1.765,-1.006 3.527,-2.018 5.306,-2.999 0.513,-0.283 0.74,-0.603 0.734,-1.229 -0.035,-3.643 -0.017,-7.287 -0.017,-10.93"
       fill="#05080c"
       id="path197" />
    <path
       transform="matrix(2.7777777,0,0,-2.7777777,253.02175,128.25664)"
       d="M 0,0 C 0.024,-0.485 0.27,-0.804 0.718,-0.831 1.219,-0.862 1.464,-0.523 1.494,-0.036 1.524,0.445 1.25,0.654 0.81,0.672 0.34,0.69 0.072,0.445 0,0 m -19.207,0.698 c -0.528,-0.008 -0.838,-0.223 -0.836,-0.711 0.002,-0.477 0.246,-0.803 0.757,-0.829 0.423,-0.021 0.752,0.37 0.739,0.842 -0.013,0.465 -0.279,0.672 -0.66,0.698 m 0.225,20.538 c 0.522,0.006 0.898,0.365 0.896,0.856 -0.001,0.506 -0.409,0.868 -0.963,0.853 -0.53,-0.013 -0.822,-0.294 -0.857,-0.812 -0.034,-0.503 0.396,-0.903 0.924,-0.897 M 0.289,23.977 C 0.901,23.404 1.467,22.838 1.952,22.198 2.316,21.717 2.517,21.179 2.515,20.551 2.494,13.309 2.486,6.066 2.47,-1.176 2.469,-1.45 2.435,-1.725 2.394,-1.996 2.331,-2.412 2.075,-2.632 1.654,-2.634 0.998,-2.637 0.339,-2.596 -0.315,-2.633 -0.81,-2.662 -0.802,-2.385 -0.8,-2.041 c 0.009,1.927 0.011,3.854 0.012,5.781 0,1.482 0.001,2.965 -0.007,4.447 -0.009,1.405 -0.768,2.166 -2.159,2.166 -4.151,-0.002 -8.303,-0.055 -12.452,0.013 -1.361,0.022 -2.394,-1.147 -2.38,-2.399 0.036,-3.261 0.016,-6.523 0.007,-9.784 -0.003,-0.88 0.148,-0.81 -0.814,-0.807 -0.593,0.002 -1.187,0.036 -1.779,0.019 -0.562,-0.016 -0.754,0.283 -0.757,0.782 -0.005,0.656 -0.006,1.313 -0.006,1.969 -10e-4,7.603 -10e-4,15.206 -10e-4,22.808 0,1.214 0.121,1.33 1.35,1.333 0.762,0.001 1.525,-0.012 2.287,0.012 0.394,0.012 0.492,-0.136 0.491,-0.519 -0.01,-2.986 0.002,-5.972 0.01,-8.958 0.004,-1.469 0.894,-2.365 2.371,-2.366 4.108,-0.002 8.217,0 12.325,0.011 1.452,0.004 2.394,0.919 2.411,2.374 0.034,2.858 0.036,5.717 0.056,8.576 0.002,0.163 -0.04,0.34 0.124,0.56"
       fill="#f0d73b"
       id="path198" />
    <path
       transform="matrix(2.7777777,0,0,-2.7777777,242.59728,75.24168)"
       d="m 0,0 h -0.003 c 0,1.163 -0.013,2.327 0.008,3.49 0.007,0.382 -0.102,0.522 -0.5,0.512 -1.015,-0.026 -2.031,-0.023 -3.046,-0.007 -0.34,0.006 -0.485,-0.07 -0.483,-0.45 0.016,-2.326 0.015,-4.652 0.003,-6.979 -0.002,-0.326 0.087,-0.447 0.423,-0.442 1.036,0.018 2.073,0.021 3.109,0.006 0.378,-0.006 0.509,0.11 0.499,0.507 C -0.018,-2.242 0,-1.121 0,0 m -4.61,5.212 c 2.034,0 4.067,-0.013 6.1,0.01 C 1.941,5.227 2.107,5.142 2.103,4.64 2.075,1.717 2.089,-1.206 2.085,-4.128 2.084,-4.802 1.893,-4.997 1.22,-4.999 c -3.854,-0.006 -7.709,-0.01 -11.563,-0.007 -0.886,0 -1.062,0.206 -1.06,1.087 0.005,2.816 0.019,5.633 -0.017,8.45 -0.008,0.585 0.169,0.699 0.711,0.691 C -8.676,5.191 -6.643,5.21 -4.61,5.21 Z"
       fill="#fdfef9"
       id="path199" />
    <path
       transform="matrix(2.7777777,0,0,-2.7777777,227.07112,130.79579)"
       d="m 0,0 c -1.968,0 -3.935,0.015 -5.903,-0.011 -0.462,-0.007 -0.563,0.152 -0.544,0.573 0.019,0.395 -0.054,0.69 0.559,0.684 C -1.932,1.211 2.025,1.213 5.981,1.238 6.524,1.241 6.528,1.001 6.536,0.599 6.544,0.173 6.49,-0.035 5.966,-0.025 3.978,0.01 1.989,-0.011 0,-0.011 Z"
       fill="#fdfef9"
       id="path200" />
    <path
       transform="matrix(2.7777777,0,0,-2.7777777,227.12062,112.84442)"
       d="m 0,0 c 1.991,0 3.981,-0.015 5.971,0.011 0.435,0.006 0.573,-0.134 0.527,-0.536 -0.04,-0.346 0.15,-0.791 -0.503,-0.789 -4.002,0.012 -8.005,0.009 -12.007,-0.003 -0.719,-0.002 -0.352,0.52 -0.422,0.818 -0.081,0.352 0.04,0.516 0.463,0.51 C -3.981,-0.013 -1.99,0 0,0"
       fill="#fdfef9"
       id="path201" />
    <path
       transform="matrix(2.7777777,0,0,-2.7777777,336.42085,228.32277)"
       d="m 0,0 c -0.677,0 -1.354,0.011 -2.031,-0.005 -0.323,-0.007 -0.514,0.06 -0.537,0.438 -0.136,2.255 -0.704,4.412 -1.54,6.503 -0.107,0.267 -0.052,0.41 0.223,0.532 0.929,0.41 1.799,0.934 2.646,1.493 C -1.013,9.11 -0.858,9.16 -0.665,8.896 1.141,6.422 2.339,3.721 2.541,0.621 2.577,0.074 2.374,-0.029 1.904,-0.009 1.27,0.018 0.635,-0.003 0,-0.003 Z"
       fill="#f0d73b"
       id="path202" />
    <path
       transform="matrix(2.7777777,0,0,-2.7777777,265.13145,228.32946)"
       d="m 0,0 c -0.657,0 -1.314,0.012 -1.97,-0.005 -0.35,-0.009 -0.504,0.102 -0.474,0.474 0.25,3.093 1.221,5.903 3.227,8.315 C 0.969,9.008 1.113,9.107 1.41,8.92 2.198,8.425 3.006,7.962 3.816,7.504 4.115,7.334 4.231,7.186 4.084,6.808 3.286,4.749 2.713,2.629 2.57,0.414 2.548,0.076 2.41,-0.016 2.097,-0.009 1.398,0.007 0.699,-0.004 0,-0.004 Z"
       fill="#f0d73b"
       id="path203" />
    <path
       transform="matrix(2.7777777,0,0,-2.7777777,336.6923,234.77198)"
       d="M 0,0 C 0.613,0 1.229,-0.039 1.838,0.011 2.426,0.059 2.534,-0.22 2.442,-0.697 2.199,-1.956 2.008,-3.225 1.529,-4.431 0.981,-5.812 0.326,-7.128 -0.58,-8.313 c -0.218,-0.285 -0.384,-0.411 -0.77,-0.182 -0.818,0.482 -1.677,0.893 -2.532,1.309 -0.316,0.155 -0.387,0.32 -0.237,0.645 0.889,1.921 1.335,3.955 1.481,6.057 0.028,0.397 0.183,0.5 0.546,0.49 C -1.395,-0.013 -0.698,0 0,0"
       fill="#f0d73b"
       id="path204" />
    <path
       transform="matrix(2.7777777,0,0,-2.7777777,313.44688,228.36473)"
       d="m 0,0 c -0.951,-0.001 -1.903,0.021 -2.852,-0.01 -0.456,-0.015 -0.582,0.153 -0.577,0.584 0.017,1.479 0.011,2.958 -0.003,4.437 -0.003,0.367 0.051,0.566 0.5,0.599 1.537,0.114 3.07,0.279 4.54,0.789 C 1.828,6.476 1.953,6.422 2.04,6.188 2.731,4.322 3.261,2.419 3.426,0.425 3.456,0.057 3.276,-0.003 2.979,-0.001 1.986,0.004 0.993,0.001 0,0"
       fill="#f0d73b"
       id="path205" />
    <path
       transform="matrix(2.7777777,0,0,-2.7777777,287.95674,228.33386)"
       d="m 0,0 c -0.952,0 -1.904,0.011 -2.855,-0.006 -0.395,-0.007 -0.561,0.068 -0.518,0.533 0.177,1.909 0.58,3.753 1.377,5.504 0.114,0.251 0.173,0.518 0.575,0.361 1.315,-0.516 2.7,-0.683 4.1,-0.731 C 3.246,5.642 3.534,5.513 3.501,4.827 3.433,3.413 3.466,1.993 3.485,0.576 3.491,0.149 3.376,-0.023 2.919,-0.009 1.947,0.022 0.973,0 0,0"
       fill="#f0d73b"
       id="path206" />
    <path
       transform="matrix(2.7777777,0,0,-2.7777777,265.3388,234.75273)"
       d="M 0,0 C 0.676,0 1.353,-0.008 2.029,0.004 2.317,0.009 2.427,-0.086 2.451,-0.392 2.622,-2.554 3.052,-4.655 4.02,-6.616 4.166,-6.91 4.122,-7.089 3.813,-7.197 2.909,-7.512 2.111,-8.038 1.277,-8.489 0.956,-8.662 0.783,-8.594 0.588,-8.339 c -1.792,2.344 -2.78,4.995 -3.05,7.927 -0.034,0.372 0.132,0.425 0.433,0.42 C -1.353,-0.002 -0.676,0.005 0,0.005 Z"
       fill="#f0d73b"
       id="path207" />
    <path
       transform="matrix(2.7777777,0,0,-2.7777777,313.6488,234.76392)"
       d="M 0,0 C 0.972,0 1.945,-0.013 2.917,0.006 3.275,0.013 3.404,-0.092 3.373,-0.463 3.219,-2.31 2.799,-4.086 2.035,-5.778 1.896,-6.086 1.749,-6.221 1.36,-6.115 c -1.468,0.399 -2.952,0.734 -4.486,0.739 -0.265,0 -0.372,0.101 -0.369,0.377 0.015,1.542 0.023,3.085 0.02,4.628 0,0.322 0.153,0.379 0.431,0.376 C -2.029,-0.006 -1.015,0 0,0"
       fill="#f0d73b"
       id="path208" />
    <path
       transform="matrix(2.7777777,0,0,-2.7777777,288.01643,234.76808)"
       d="M 0,0 C 0.973,0 1.947,-0.016 2.919,0.008 3.317,0.017 3.482,-0.077 3.475,-0.514 3.45,-1.974 3.455,-3.434 3.471,-4.893 3.475,-5.246 3.363,-5.352 3.01,-5.379 1.532,-5.492 0.068,-5.708 -1.36,-6.116 c -0.334,-0.095 -0.483,-0.01 -0.634,0.298 -0.818,1.672 -1.266,3.439 -1.445,5.285 -0.04,0.421 0.096,0.557 0.52,0.546 C -1.947,-0.014 -0.973,0.004 0,0.004 Z"
       fill="#f0d73b"
       id="path209" />
    <path
       transform="matrix(2.7777777,0,0,-2.7777777,303.9878,199.47136)"
       d="M 0,0 C 0,0.656 0.01,1.313 -0.004,1.969 -0.011,2.339 0.064,2.511 0.454,2.274 2.001,1.337 3.101,-0.006 3.971,-1.563 4.094,-1.784 4.047,-1.911 3.808,-1.991 2.675,-2.373 1.509,-2.533 0.315,-2.524 c -0.31,0.003 -0.322,0.201 -0.321,0.428 0.003,0.698 0.001,1.397 0.001,2.096 z"
       fill="#f0d73b"
       id="path210" />
    <path
       transform="matrix(2.7777777,0,0,-2.7777777,297.6152,199.74976)"
       d="m 0,0 c 0,-0.656 -0.011,-1.312 0.005,-1.967 0.007,-0.311 -0.07,-0.455 -0.42,-0.457 -1.109,-0.008 -2.187,0.164 -3.252,0.459 -0.419,0.116 -0.506,0.32 -0.28,0.684 0.864,1.397 1.864,2.668 3.298,3.53 0.543,0.327 0.629,0.28 0.637,-0.345 C -0.003,1.269 -0.01,0.635 -0.01,0 Z"
       fill="#f0d73b"
       id="path211" />
    <path
       transform="matrix(2.7777777,0,0,-2.7777777,303.9269,262.525)"
       d="m 0,0 c 0,0.635 0.011,1.271 -0.005,1.906 -0.008,0.322 0.103,0.456 0.437,0.456 1.197,0 2.352,-0.25 3.5,-0.556 C 4.164,1.745 4.181,1.633 4.065,1.443 3.211,0.036 2.211,-1.242 0.801,-2.133 0.129,-2.558 0.007,-2.468 0.001,-1.652 -0.003,-1.101 0,-0.551 0,0"
       fill="#f0d73b"
       id="path212" />
    <path
       transform="matrix(2.7777777,0,0,-2.7777777,285.85408,257.84446)"
       d="M 0,0 C 1.333,0.451 2.623,0.52 3.907,0.633 4.154,0.655 4.253,0.552 4.252,0.309 4.249,-1.148 4.25,-2.605 4.25,-4.158 2.236,-3.3 1.081,-1.747 0,0"
       fill="#f0d73b"
       id="path213" />
    <path
       transform="matrix(2.7777777,0,0,-2.7777777,312.23805,272.7294)"
       d="M 0,0 C 0.975,1.095 1.902,2.213 2.687,3.441 2.755,3.548 2.831,3.649 2.9,3.756 3.535,4.748 3.538,4.753 4.574,4.223 4.912,4.05 5.233,3.845 5.562,3.654 5.952,3.428 5.987,3.184 5.638,2.872 4.019,1.423 2.171,0.422 0,0"
       fill="#f0d73b"
       id="path214" />
    <path
       transform="matrix(2.7777777,0,0,-2.7777777,289.7183,272.63496)"
       d="m 0,0 c -0.438,-0.099 -0.728,0.048 -1.02,0.147 -1.678,0.571 -3.21,1.406 -4.536,2.59 -0.599,0.535 -0.578,0.639 0.138,1.014 0.467,0.245 0.952,0.455 1.425,0.69 C -3.703,4.585 -3.5,4.56 -3.327,4.244 -2.47,2.677 -1.346,1.314 0,0"
       fill="#f0d73b"
       id="path215" />
    <path
       transform="matrix(2.7777777,0,0,-2.7777777,312.37165,189.68752)"
       d="M 0,0 C 0.182,0.128 0.364,0.024 0.534,-0.03 2.221,-0.566 3.795,-1.326 5.174,-2.446 6.052,-3.159 6.035,-3.214 5.031,-3.788 4.609,-4.029 4.17,-4.241 3.743,-4.473 3.552,-4.577 3.392,-4.614 3.268,-4.381 2.402,-2.77 1.234,-1.388 -0.014,-0.068 -0.022,-0.059 -0.006,-0.028 0,0"
       fill="#f0d73b"
       id="path216" />
    <path
       transform="matrix(2.7777777,0,0,-2.7777777,289.7583,190.12857)"
       d="M 0,0 C -0.335,-0.284 -0.696,-0.544 -1.002,-0.857 -1.923,-1.8 -2.641,-2.896 -3.282,-4.041 -3.475,-4.387 -3.666,-4.49 -4.03,-4.263 c -0.501,0.313 -1.027,0.584 -1.544,0.87 -0.268,0.148 -0.402,0.316 -0.123,0.58 1.582,1.491 3.444,2.46 5.509,3.053 C -0.125,0.16 -0.063,0.08 0,0"
       fill="#f0d73b"
       id="path217" />
    <path
       transform="matrix(2.7777777,0,0,-2.7777777,200.29534,69.26719)"
       d="m 0,0 c -0.529,-0.006 -0.959,0.394 -0.925,0.896 0.035,0.519 0.328,0.8 0.858,0.813 C 0.486,1.723 0.894,1.362 0.896,0.856 0.897,0.365 0.521,0.006 0,0"
       fill="#05080c"
       id="path218" />
    <path
       transform="matrix(2.7777777,0,0,-2.7777777,199.67006,126.31666)"
       d="M 0,0 C 0.381,-0.026 0.647,-0.233 0.659,-0.698 0.672,-1.171 0.344,-1.561 -0.079,-1.54 -0.59,-1.515 -0.835,-1.189 -0.837,-0.712 -0.839,-0.223 -0.528,-0.009 0,0"
       fill="#05080c"
       id="path219" />
    <path
       transform="matrix(2.7777777,0,0,-2.7777777,253.02175,128.25664)"
       d="M 0,0 C 0.072,0.445 0.34,0.69 0.81,0.672 1.25,0.654 1.524,0.445 1.494,-0.036 1.464,-0.523 1.219,-0.862 0.718,-0.831 0.27,-0.804 0.024,-0.485 0,0"
       fill="#05080c"
       id="path220" />
    <path
       transform="matrix(2.7777777,0,0,-2.7777777,242.59728,75.24168)"
       d="m 0,0 c 0,-1.121 -0.018,-2.242 0.01,-3.363 0.01,-0.397 -0.121,-0.513 -0.499,-0.507 -1.036,0.015 -2.073,0.012 -3.109,-0.006 -0.336,-0.005 -0.425,0.116 -0.423,0.442 0.012,2.327 0.013,4.653 -0.003,6.979 -0.002,0.38 0.143,0.456 0.483,0.45 1.015,-0.016 2.031,-0.019 3.046,0.007 0.398,0.01 0.507,-0.13 0.5,-0.512 C -0.016,2.327 -0.003,1.163 -0.003,0 Z"
       fill="#05080c"
       id="path221" />
    <path
       transform="matrix(2.7777777,0,0,-2.7777777,150.6819,331.26585)"
       d="M 0,0 H 5.205 V -2.094 H 2.131 V -3.578 H 4.758 V -5.672 H 2.131 V -7.359 H 5.328 V -9.454 H 0 Z"
       fill="#fdca28"
       id="path222" />
    <path
       transform="matrix(2.7777777,0,0,-2.7777777,-1472.2222,1197.2222)"
       d="m 591.136,311.744 h 2.13099 v -9.45401 H 591.136 Z"
       fill="#fdca28"
       id="path223" />
    <path
       transform="matrix(2.7777777,0,0,-2.7777777,188.09949,346.90025)"
       d="M 0,0 1.437,1.658 4.052,-3.825 H 1.673 Z m 0.235,1.323 c 0.843,0 1.289,0.437 1.289,1.251 0,0.815 -0.446,1.076 -1.289,1.076 H -0.533 V 1.323 Z m -2.899,4.305 h 3.048 c 1.735,0 3.222,-0.698 3.222,-3.054 0,-2.283 -1.487,-3.229 -3.222,-3.229 h -0.917 v -3.17 h -2.131 z"
       fill="#fdca28"
       id="path224" />
    <path
       transform="matrix(2.7777777,0,0,-2.7777777,210.7147,352.19303)"
       d="M 0,0 C 0.843,0 1.239,0.349 1.239,1.047 1.239,1.745 0.843,2.007 0,2.007 H -0.867 V 0 Z m -0.149,3.84 c 0.694,0 1.016,0.378 1.016,0.959 0,0.582 -0.322,0.815 -1.016,0.815 H -0.867 V 3.84 Z m -2.85,3.694 h 2.9 c 1.685,0 3.048,-0.495 3.048,-2.356 0,-0.815 -0.396,-1.746 -1.016,-2.036 V 3.083 C 2.701,2.822 3.321,2.123 3.321,0.873 3.321,-1.076 1.884,-1.92 0.149,-1.92 h -3.148 z"
       fill="#fdca28"
       id="path225" />
    <path
       transform="matrix(2.7777777,0,0,-2.7777777,220.97388,331.26585)"
       d="M 0,0 H 2.181 L 2.627,-4.131 C 2.714,-5.119 2.813,-6.108 2.9,-7.097 h 0.049 c 0.149,0.989 0.298,1.992 0.446,2.966 L 4.164,0 h 1.784 l 0.768,-4.131 c 0.149,-0.945 0.298,-1.963 0.446,-2.966 h 0.05 c 0.087,1.003 0.186,2.007 0.272,2.966 L 7.931,0 H 9.963 L 8.625,-9.454 H 5.923 L 5.304,-5.701 C 5.18,-4.974 5.081,-4.189 5.006,-3.491 H 4.957 C 4.87,-4.189 4.783,-4.974 4.659,-5.701 L 4.064,-9.454 H 1.413 Z"
       fill="#ffffff"
       id="path226" />
    <path
       transform="matrix(2.7777777,0,0,-2.7777777,-1472.2222,1197.2222)"
       d="m 621.273,306.232 h 3.941 v -1.934 h -3.941 z m 0.694,5.512 h 2.578 l 2.453,-9.453 h -2.255 l -0.917,4.596 c -0.198,0.901 -0.396,2.05 -0.595,2.996 h -0.049 c -0.174,-0.96 -0.372,-2.095 -0.57,-2.996 l -0.917,-4.596 h -2.181 z"
       fill="#ffffff"
       id="path227" />
    <path
       transform="matrix(2.7777777,0,0,-2.7777777,278.63194,346.90025)"
       d="M 0,0 1.437,1.658 4.052,-3.825 H 1.673 Z m 0.235,1.323 c 0.843,0 1.289,0.437 1.289,1.251 0,0.815 -0.446,1.076 -1.289,1.076 H -0.533 V 1.323 Z m -2.899,4.305 h 3.048 c 1.735,0 3.222,-0.698 3.222,-3.054 0,-2.283 -1.487,-3.229 -3.222,-3.229 h -0.917 v -3.17 h -2.131 z"
       fill="#ffffff"
       id="path228" />
    <path
       transform="matrix(2.7777777,0,0,-2.7777777,292.91755,331.26585)"
       d="M 0,0 H 5.205 V -2.094 H 2.131 V -3.578 H 4.758 V -5.672 H 2.131 V -7.359 H 5.328 V -9.454 H 0 Z"
       fill="#ffffff"
       id="path229" />
  </g>
</svg>
