<svg xmlns="http://www.w3.org/2000/svg" id="Calque_1" viewBox="0 0 249.1 127.1">
  <defs id="defs62">
    <linearGradient id="SVGID_1_" x1="257.9" x2="265.3" y1="142.2" y2="69.5" gradientUnits="userSpaceOnUse">
      <stop id="stop8" offset="0" stop-color="#372e77"/>
      <stop id="stop10" offset=".2" stop-color="#39327e"/>
      <stop id="stop12" offset=".6" stop-color="#3b3888"/>
      <stop id="stop14" offset="1" stop-color="#3c3a8c"/>
    </linearGradient>
    <linearGradient id="SVGID_2_" x1="178.8" x2="186.2" y1="134.2" y2="61.5" gradientUnits="userSpaceOnUse">
      <stop id="stop19" offset="0" stop-color="#372e77"/>
      <stop id="stop21" offset=".2" stop-color="#39327e"/>
      <stop id="stop23" offset=".6" stop-color="#3b3888"/>
      <stop id="stop25" offset="1" stop-color="#3c3a8c"/>
    </linearGradient>
    <linearGradient id="SVGID_3_" x1="95.5" x2="102.8" y1="125.8" y2="53.1" gradientUnits="userSpaceOnUse">
      <stop id="stop50" offset="0" stop-color="#372e77"/>
      <stop id="stop52" offset=".2" stop-color="#39327e"/>
      <stop id="stop54" offset=".6" stop-color="#3b3888"/>
      <stop id="stop56" offset="1" stop-color="#3c3a8c"/>
    </linearGradient>
  </defs>
  <g id="g4220" transform="translate(-51.5 -51)">
    <path id="path16" fill="url(#SVGID_1_)" d="M239.8 96.7c-3.4-1.4-5.3-5.8-5-8.4l2.4-23.2a4.8 4.8 0 0 1 4.7-4.1h35.3l-1.8 16.4c-.3 2.6-3.4 5.3-6.6 3.8-3.2-1.5-11.4-4.3-19.1-7.1-4.1-1.5-6.6 4.3-2.3 6l36 13c8.1 2.9 7.4 9 7 12.6-.5 3.6-2.8 25.6-2.8 25.6a4.8 4.8 0 0 1-4.7 4.1h-53.3s2.4-23.5 3-27.9c.4-3.5 4.5-5.2 7.4-3.4l27.6 17.5a7.3 7.3 0 0 0 10.4-2.9c1.8-3.4.4-8.8-3.6-10.1a831.2 831.2 0 0 1-34.6-11.9z"/>
    <path id="path27" fill="url(#SVGID_2_)" d="M221.3 131.5c-.2 1.9-2 3.9-4.7 3.9h-18.1l6.1-56.5c.1-1-1.2-1.5-1.7-.6l-8.5 13.2-4.3 40c-.2 2.1-2.3 3.9-4.7 3.9h-18.1l6.1-56.4c.1-1.3-1.3-1.5-1.7-.8l-8.4 13.1-4.3 39.9a4.7 4.7 0 0 1-4.7 4.2h-18.1l7.6-70.4c.2-1.9 2.1-3.9 4.7-3.9h18.1L165 74.7c5.2-7.9 8.8-13.6 14.3-13.6h18.4l-1.5 13.8c5.2-8 8.1-13.8 13.7-13.8h19l-7.6 70.4z"/>
    <g id="g29">
      <g id="g31">
        <path id="path33" fill="#ed7b51" d="M91 155.5c.1.9-.7 1.6-1.6 1.6h-5.2c-.9 0-1.6.7-1.6 1.6 0 .9.7 1.6 1.6 1.6h2.9c.9 0 1.6.7 1.6 1.6 0 .8-.8 1.5-1.6 1.5h-1.8a2.6 2.6 0 0 0-2.6 2.6c0 .9-.7 1.6-1.6 1.6-.8 0-1.5-.8-1.5-1.6v-10.3c0-.9.7-1.6 1.6-1.6h8.3c.7-.1 1.4.5 1.5 1.4z" class="st2"/>
        <path id="path35" fill="#ed7b51" d="M118.1 167.4l-.8.2c-.5 0-1.1-.3-1.4-.8a3.3 3.3 0 0 0-3-1.7h-3.7c-1.2 0-2.4.6-3 1.7-.3.5-.8.8-1.4.8l-.8-.2c-.7-.5-1-1.4-.5-2.2l6.1-10.5.1-.1.1-.1.1-.1.1-.1.1-.1.1-.1H112.2l.1.1.1.1.1.1.1.1.1.1.1.1 6.1 10.5c.2.8 0 1.7-.8 2.2zm-8-5.4h2.2c.4 0 .6-.4.4-.7l-.5-.8c-.5-.8-1.7-.8-2.1 0l-.5.8c-.2.3.1.7.5.7z" class="st2"/>
        <path id="path37" fill="#ed7b51" d="M147 165.4a8 8 0 0 1-6 2.6c-4.3 0-7.8-3.3-7.8-7.3s3.5-7.3 7.8-7.3a8 8 0 0 1 6 2.6c.6.7.5 1.6-.1 2.2-.6.6-1.6.5-2.2-.1a5 5 0 0 0-3.7-1.6c-2.6 0-4.7 1.9-4.7 4.2 0 2.3 2.1 4.2 4.7 4.2a5 5 0 0 0 3.7-1.6c.6-.6 1.6-.7 2.2-.1.6.6.7 1.6.1 2.2z" class="st2"/>
        <path id="path39" fill="#ed7b51" d="M177.2 155.6c0 .8-.8 1.5-1.6 1.5h-.8a3.2 3.2 0 0 0-3.2 3.2v5.8c0 .9-.7 1.6-1.6 1.6-.8 0-1.5-.8-1.5-1.6v-5.7c0-1.7-1.4-3.2-3.2-3.2h-.8c-.9 0-1.6-.7-1.6-1.6 0-.9.8-1.5 1.6-1.5h11c1.1-.1 1.8.6 1.7 1.5z" class="st2"/>
        <path id="path41" fill="#ed7b51" d="M206.9 160.8c0 4-3.5 7.3-7.8 7.3s-7.8-3.3-7.8-7.3 3.5-7.3 7.8-7.3 7.8 3.3 7.8 7.3zm-3.1 0c0-2.3-2.1-4.2-4.7-4.2s-4.7 1.9-4.7 4.2c0 2.3 2.1 4.2 4.7 4.2s4.7-1.9 4.7-4.2z" class="st2"/>
        <path id="path43" fill="#ed7b51" d="M235.1 167.5l-.6.1c-.7 0-1.3-.4-1.5-1.1-.7-1.9-1.6-2.8-3.3-2.8h-1.9c-1.3 0-2.3 1-2.3 2.3 0 .9-.7 1.6-1.6 1.6-.8 0-1.5-.8-1.5-1.6v-11c0-.9.7-1.6 1.6-1.6h6.3c3 0 5.5 2.3 5.5 5.1 0 .8-.2 1.5-.5 2.2a3 3 0 0 0 .1 3l.7 1.6c.1 1-.3 1.9-1 2.2zm-8.3-6.9h3.4c1.3 0 2.3-.9 2.3-2s-1.1-2-2.3-2h-2a2.7 2.7 0 0 0-2.7 2.7c0 .7.6 1.3 1.3 1.3z" class="st2"/>
        <path id="path45" fill="#ed7b51" d="M266.9 156.8l-3.4 2.6a7 7 0 0 0-2.7 5.6v1c0 .9-.7 1.6-1.6 1.6-.9 0-1.5-.8-1.5-1.6v-1a7 7 0 0 0-2.7-5.6l-3.4-2.6c-.7-.5-.8-1.5-.3-2.2.5-.7 1.5-.8 2.2-.3l2.9 2.3c1.7 1.3 4 1.3 5.7 0l2.9-2.3c.7-.5 1.6-.4 2.2.3.5.6.4 1.6-.3 2.2z" class="st2"/>
      </g>
    </g>
    <path id="path58" fill="url(#SVGID_3_)" d="M68.9 61.1l-1.4 13.2c-.8 7.1 7.5 9.6 17.3 14H66l-1.4 12.8c-.7 7 7.8 9.6 17.4 13.9H63.2l-1.7 15.3a4.7 4.7 0 0 0 4.7 5.2h61.4l1.6-15.3c.3-2.9-2-5.3-4.7-5.3h-27l-12-4.1c-1.7-.6-1.6-2.6-.3-2.6h27.4l1.6-14.7a4.7 4.7 0 0 0-4.7-5.3h-9.1l-11.9-4.1c-2.1-.8-1.4-2.4-.4-2.4h45.3l1.7-15.5a4.8 4.8 0 0 0-4.8-5.2l-61.4.1z"/>
  </g>
</svg>
